<svg width="31" height="32" viewBox="0 0 31 32" fill="none" xmlns="http://www.w3.org/2000/svg">
<path d="M26.9183 6.14666C26.2586 5.46533 25.4753 4.92485 24.6132 4.5561C23.751 4.18735 22.827 3.99756 21.8938 3.99756C20.9605 3.99756 20.0365 4.18735 19.1743 4.5561C18.3122 4.92485 17.5289 5.46533 16.8692 6.14666L15.5 7.55999L14.1308 6.14666C12.7982 4.77107 10.9908 3.99827 9.10625 3.99827C7.22167 3.99827 5.41427 4.77107 4.08167 6.14666C2.74907 7.52225 2.00042 9.38795 2.00042 11.3333C2.00042 13.2787 2.74907 15.1444 4.08167 16.52L15.5 28.3067L26.9183 16.52C27.5784 15.839 28.102 15.0304 28.4592 14.1405C28.8164 13.2505 29.0003 12.2966 29.0003 11.3333C29.0003 10.37 28.8164 9.41613 28.4592 8.52619C28.102 7.63624 27.5784 6.82767 26.9183 6.14666Z" stroke="#CDD0E3" stroke-width="4" stroke-linecap="round" stroke-linejoin="round"/>
</svg>
