<svg width="29" height="29" viewBox="0 0 29 29" fill="none" xmlns="http://www.w3.org/2000/svg">
<path d="M28.6705 11.1405L20.1535 2.58175C17.0905 -0.481026 12.1404 -0.481026 9.0774 2.58175L0.56045 11.1405C0.286095 11.4141 0.203677 11.8274 0.351884 12.1862C0.500092 12.545 0.849495 12.7781 1.23607 12.7761H2.67945V22.1063C2.68509 25.8877 5.73415 28.9517 9.4971 28.9574H10.961C11.4884 28.9517 11.913 28.5204 11.913 27.9904V20.1312H17.318V27.9904C17.3179 28.5204 17.7425 28.9517 18.27 28.9574H19.7338C23.4968 28.9517 26.5458 25.8877 26.5515 22.1063V12.7761H27.9948C28.3814 12.7781 28.7308 12.545 28.879 12.1862C29.0272 11.8274 28.9448 11.4141 28.6705 11.1405Z" fill="#CDD0E3"/>
</svg>
