<svg width="53" height="53" viewBox="0 0 53 53" fill="none" xmlns="http://www.w3.org/2000/svg">
<path fill-rule="evenodd" clip-rule="evenodd" d="M40.6705 23.1405L32.1535 14.5817C29.0905 11.519 24.1404 11.519 21.0774 14.5817L12.5604 23.1405C12.2861 23.4141 12.2037 23.8274 12.3519 24.1862C12.5001 24.545 12.8495 24.7781 13.2361 24.7761H14.6795V34.1063C14.6851 37.8877 17.7342 40.9517 21.4971 40.9574H22.961C23.4884 40.9517 23.913 40.5204 23.913 39.9904V32.1312H29.318V39.9904C29.3179 40.5204 29.7425 40.9517 30.27 40.9574H31.7338C35.4968 40.9517 38.5458 37.8877 38.5515 34.1063V24.7761H39.9948C40.3814 24.7781 40.7308 24.545 40.879 24.1862C41.0272 23.8274 40.9448 23.4141 40.6705 23.1405ZM22.4262 15.9417C23.5361 14.8248 25.0423 14.1972 26.613 14.1972C28.1837 14.1972 29.69 14.8248 30.7998 15.9417L37.6789 22.8545H15.5471L22.4262 15.9417ZM31.7463 39.0349C34.452 39.0292 36.644 36.8265 36.6497 34.1075V24.7773H16.6062V34.1075C16.6118 36.8265 18.8038 39.0292 21.5096 39.0349H22.0112V31.1654C22.0168 30.6354 22.4459 30.2087 22.9734 30.2087H30.2824C30.8099 30.2087 31.2391 30.6354 31.2447 31.1654V39.0349H31.7463Z" fill="#371B34"/>
<path d="M40.6705 23.1405L32.1535 14.5817C29.0905 11.519 24.1404 11.519 21.0774 14.5817L12.5604 23.1405C12.2861 23.4141 12.2037 23.8274 12.3519 24.1862C12.5001 24.545 12.8495 24.7781 13.2361 24.7761H14.6795V34.1063C14.6851 37.8877 17.7342 40.9517 21.4971 40.9574H22.961C23.4884 40.9517 23.913 40.5204 23.913 39.9904V32.1312H29.318V39.9904C29.3179 40.5204 29.7425 40.9517 30.27 40.9574H31.7338C35.4968 40.9517 38.5458 37.8877 38.5515 34.1063V24.7761H39.9948C40.3814 24.7781 40.7308 24.545 40.879 24.1862C41.0272 23.8274 40.9448 23.4141 40.6705 23.1405Z" fill="#371B34"/>
</svg>
