<svg width="269" height="255" viewBox="0 0 269 255" fill="none" xmlns="http://www.w3.org/2000/svg">
<path fill-rule="evenodd" clip-rule="evenodd" d="M239.05 184.515L239.05 250.637C239.05 253.045 240.973 255 243.336 255C245.702 255 247.623 253.045 247.623 250.637L247.623 184.515C247.623 182.107 245.702 180.152 243.336 180.152C240.973 180.152 239.05 182.107 239.05 184.515ZM206.713 250.637L206.713 180.155C206.713 165.158 194.768 153 180.038 153C179.393 153 178.744 153 178.098 153C163.365 153 151.424 165.158 151.424 180.155C151.424 206.068 151.424 219.43 151.424 219.43C151.424 221.839 153.344 223.793 155.71 223.793C158.073 223.793 159.996 221.839 159.996 219.43L159.996 180.155C159.996 169.978 168.1 161.729 178.098 161.726L180.035 161.726C190.037 161.729 198.14 169.978 198.14 180.155L198.14 250.637C198.14 253.045 200.06 255 202.426 255C204.792 255 206.713 253.045 206.713 250.637Z" fill="black"/>
<path fill-rule="evenodd" clip-rule="evenodd" d="M179.853 93.2068C170.512 93.2068 162.926 100.99 162.926 110.575C162.926 120.163 170.512 127.946 179.853 127.946C189.198 127.946 196.783 120.163 196.783 110.575C196.783 100.99 189.198 93.2068 179.853 93.2068ZM179.853 101.923C184.508 101.923 188.289 105.801 188.289 110.575C188.289 115.351 184.508 119.23 179.853 119.23C175.198 119.23 171.421 115.351 171.421 110.575C171.421 105.801 175.198 101.923 179.853 101.923ZM10.2219 254.233C10.9298 254.733 11.7708 255 12.6288 255L72.0183 255C73.5134 255 74.9009 254.192 75.6654 252.873C77.067 250.462 77.874 247.646 77.874 244.639C77.874 235.746 70.8376 228.526 62.1729 228.526C61.8586 228.526 61.5471 228.538 61.2357 228.555C59.0412 222.376 53.2619 217.957 46.4803 217.957C44.7729 217.957 43.1277 218.236 41.5873 218.756C37.2664 213.485 30.7905 210.135 23.5587 210.135C10.5561 210.135 -6.09626e-05 220.967 -6.09551e-05 234.308C-6.09504e-05 242.571 4.0491 249.875 10.2219 254.233ZM14.0389 246.284C10.6552 243.445 8.49468 239.134 8.49468 234.308C8.49468 225.778 15.2452 218.852 23.5587 218.852C29.0803 218.852 33.9138 221.911 36.5358 226.464C37.1276 227.489 38.1045 228.221 39.2371 228.491C40.3698 228.759 41.559 228.541 42.5303 227.884C43.6629 227.117 45.0221 226.673 46.4803 226.673C50.3851 226.673 53.5706 229.866 53.6838 233.846C53.7235 235.27 54.4399 236.583 55.598 237.361C56.7589 238.143 58.2172 238.294 59.5056 237.765C60.3296 237.428 61.23 237.242 62.1729 237.242C66.1485 237.242 69.3793 240.557 69.3793 244.639C69.3793 245.203 69.317 245.755 69.1981 246.284L14.0389 246.284ZM105.64 254.233C106.348 254.733 107.187 255 108.047 255L158.146 255C159.642 255 161.029 254.192 161.794 252.873C163.037 250.738 163.75 248.242 163.75 245.578C163.75 237.701 157.518 231.304 149.841 231.304C149.725 231.304 149.612 231.307 149.499 231.31C147.437 226.08 142.437 222.387 136.604 222.387C135.247 222.387 133.936 222.588 132.696 222.96C128.93 218.564 123.411 215.789 117.267 215.789C105.932 215.789 96.7295 225.232 96.7295 236.865C96.7295 244.067 100.258 250.433 105.64 254.233ZM109.477 246.284C106.875 244.015 105.224 240.636 105.224 236.865C105.224 230.043 110.618 224.505 117.267 224.505C121.681 224.505 125.546 226.952 127.645 230.592C128.234 231.618 129.211 232.35 130.343 232.62C131.476 232.887 132.665 232.669 133.636 232.013C134.489 231.437 135.508 231.103 136.604 231.103C139.537 231.103 141.93 233.503 142.015 236.493C142.057 237.916 142.771 239.23 143.932 240.011C145.09 240.79 146.548 240.941 147.837 240.415C148.457 240.159 149.134 240.02 149.841 240.02C152.829 240.02 155.255 242.51 155.255 245.578C155.255 245.816 155.241 246.051 155.213 246.284L109.477 246.284ZM206.935 255L264.753 255C267.097 255 269 253.047 269 250.642C269 248.236 267.097 246.284 264.753 246.284L206.935 246.284C204.59 246.284 202.687 248.236 202.687 250.642C202.687 253.047 204.59 255 206.935 255Z" fill="black"/>
<path fill-rule="evenodd" clip-rule="evenodd" d="M134.74 42.2069L75.5795 42.2069C72.8939 42.2069 70.3236 43.3145 68.4471 45.2744C61.5282 52.5111 35.0914 80.1527 20.6524 95.2518C17.8489 98.1815 17.0399 102.543 18.5962 106.319C20.1524 110.095 23.7734 112.552 27.7848 112.552L99.7493 112.552C102.075 112.552 103.963 110.621 103.963 108.248C103.963 105.872 102.075 103.943 99.7493 103.943L27.7848 103.943C27.164 103.943 26.605 103.562 26.3634 102.979C26.1218 102.394 26.2482 101.72 26.6808 101.266L74.4755 51.2916C74.7648 50.9875 75.1637 50.8153 75.5795 50.8153L134.74 50.8153C137.066 50.8153 138.954 48.887 138.954 46.5111C138.954 44.1352 137.066 42.2069 134.74 42.2069Z" fill="black"/>
<path fill-rule="evenodd" clip-rule="evenodd" d="M167.813 194.397L167.813 201.389C167.813 203.801 169.686 205.759 171.994 205.759C174.302 205.759 176.174 203.801 176.174 201.389L176.174 194.397C176.174 191.984 174.302 190.026 171.994 190.026C169.686 190.026 167.813 191.984 167.813 194.397ZM118.404 96.2864C120.951 96.2864 123.401 95.2609 125.241 93.4196L178.87 39.7993C179.46 39.2079 180.394 39.2079 180.985 39.7993L234.614 93.4196C236.453 95.2609 238.903 96.2864 241.45 96.2864L255.545 96.2864C259.586 96.2864 263.22 93.7168 264.725 89.7983C266.23 85.877 265.302 81.3962 262.381 78.477C242.574 58.6691 199.923 16.0235 186.765 2.86674C182.939 -0.955582 176.913 -0.955582 173.089 2.86674L97.4703 78.4771C94.5522 81.3962 93.6241 85.877 95.1291 89.7983C96.6342 93.7168 100.268 96.2864 104.307 96.2864L118.404 96.2864ZM118.404 87.5463L104.307 87.5463C103.683 87.5463 103.12 87.1501 102.888 86.5441C102.654 85.9382 102.799 85.2448 103.251 84.7903L178.87 9.18289C179.46 8.59148 180.394 8.59148 180.985 9.18289L256.604 84.7903C257.055 85.2448 257.197 85.9382 256.966 86.5441C256.732 87.1501 256.172 87.5463 255.545 87.5463L241.45 87.5463C241.055 87.5463 240.676 87.389 240.391 87.1035L186.765 33.4832C182.939 29.658 176.913 29.658 173.089 33.4832L119.46 87.1035C119.176 87.389 118.797 87.5463 118.404 87.5463Z" fill="black"/>
<path fill-rule="evenodd" clip-rule="evenodd" d="M83.0489 195.903L83.0489 142.19C83.0489 139.796 81.2059 137.853 78.935 137.853C76.6642 137.853 74.8212 139.796 74.8212 142.19L74.8212 195.903C74.8212 198.297 76.6642 200.24 78.935 200.24C81.2059 200.24 83.0489 198.297 83.0489 195.903ZM120.137 255L243.509 255C245.779 255 247.623 253.057 247.623 250.663C247.623 248.269 245.779 246.326 243.509 246.326L120.137 246.326C117.866 246.326 116.023 248.269 116.023 250.663C116.023 253.057 117.866 255 120.137 255ZM116.023 92.2681L116.023 205.685C116.023 208.079 117.866 210.022 120.137 210.022C122.408 210.022 124.251 208.079 124.251 205.685L124.251 92.2681C124.251 89.874 122.408 87.931 120.137 87.931C117.866 87.931 116.023 89.874 116.023 92.2681ZM247.623 145.964L247.623 92.2681C247.623 89.874 245.779 87.931 243.509 87.931C241.241 87.931 239.395 89.874 239.395 92.2681L239.395 145.964C239.395 148.358 241.241 150.301 243.509 150.301C245.779 150.301 247.623 148.358 247.623 145.964Z" fill="black"/>
<path fill-rule="evenodd" clip-rule="evenodd" d="M218.323 168.869C215.473 171.919 213.775 175.653 213.775 179.688C213.775 190.358 225.71 198.724 239.605 198.724C253.502 198.724 265.437 190.358 265.437 179.688C265.437 175.655 263.739 171.922 260.9 168.869C260.9 168.867 260.898 168.865 260.895 168.864C259.156 167.004 258.484 164.684 258.975 162.426C258.975 162.422 258.978 162.419 258.978 162.417C259.128 161.701 259.208 160.966 259.208 160.218C259.208 152.188 250.063 145.965 239.605 145.965C229.146 145.965 220.004 152.188 220.004 160.218C220.004 160.969 220.084 161.707 220.245 162.424C220.737 164.685 220.064 167.007 218.323 168.869ZM225.894 171.271C228.457 168.531 229.52 165.121 228.796 161.793C228.796 161.788 228.793 161.785 228.793 161.781C228.678 161.272 228.623 160.75 228.623 160.218C228.623 157.081 230.508 154.273 233.571 152.549C235.272 151.592 237.338 150.987 239.605 150.987C241.874 150.987 243.94 151.592 245.641 152.549C248.704 154.273 250.589 157.081 250.589 160.218C250.589 160.757 250.531 161.287 250.422 161.803C249.701 165.121 250.764 168.527 253.327 171.268C255.533 173.638 256.818 176.549 256.818 179.688C256.818 184.41 253.927 188.622 249.319 191.218C246.586 192.755 243.248 193.702 239.605 193.702C235.964 193.702 232.626 192.755 229.893 191.218C225.285 188.622 222.394 184.41 222.394 179.688C222.394 176.551 223.679 173.641 225.894 171.271Z" fill="black"/>
<path fill-rule="evenodd" clip-rule="evenodd" d="M39.4424 255L117.326 255C119.431 255 121.139 253.037 121.139 250.618C121.139 248.198 119.431 246.235 117.326 246.235L39.4424 246.235C37.3399 246.235 35.629 248.198 35.629 250.618C35.629 253.037 37.3399 255 39.4424 255ZM35.629 108.141L35.629 215.066C35.629 217.486 37.3399 219.449 39.4424 219.449C41.5473 219.449 43.2557 217.486 43.2557 215.066L43.2557 108.141C43.2557 105.722 41.5473 103.759 39.4424 103.759C37.3399 103.759 35.629 105.722 35.629 108.141ZM99.2759 159.458C99.2759 153.401 97.1811 147.596 93.4568 143.313C89.7299 139.032 84.6785 136.625 79.4085 136.625C79.2255 136.625 79.0424 136.625 78.8568 136.625C73.5894 136.625 68.5355 139.032 64.8111 143.313C61.0842 147.596 58.992 153.401 58.992 159.458C58.992 171.147 58.992 185.511 58.992 193.449C58.992 199.175 63.0316 203.818 68.0143 203.818L90.2536 203.818C95.2363 203.818 99.2759 199.175 99.2759 193.449L99.2759 159.458ZM91.6493 159.458L91.6493 193.449C91.6493 194.334 91.0239 195.053 90.2536 195.053L68.0143 195.053C67.244 195.053 66.6186 194.334 66.6186 193.449L66.6186 159.458C66.6186 155.727 67.9075 152.148 70.2032 149.509C72.4988 146.871 75.6104 145.39 78.8568 145.39L79.4085 145.39C82.6549 145.39 85.7691 146.871 88.0648 149.509C90.3578 152.148 91.6493 155.727 91.6493 159.458Z" fill="black"/>
<path fill-rule="evenodd" clip-rule="evenodd" d="M64.1108 174.103L94.4387 174.103C96.3935 174.103 97.9801 171.74 97.9801 168.827C97.9801 165.915 96.3935 163.552 94.4387 163.552L64.1108 163.552C62.156 163.552 60.5695 165.915 60.5695 168.827C60.5695 171.74 62.156 174.103 64.1108 174.103Z" fill="black"/>
</svg>
