<svg width="258" height="51" viewBox="0 0 258 51" fill="none" xmlns="http://www.w3.org/2000/svg">
<path d="M4.17594 3.272L4.12794 8.624L6.71994 8.672L9.21594 8.6L9.35994 8.792L9.19194 10.256L6.52794 10.184L4.10394 10.208L4.07994 12.2L4.17594 17H2.23194L2.35194 12.368L2.23194 1.616H10.4159L10.5599 1.808L10.3919 3.344L6.86394 3.224L4.17594 3.272ZM12.4462 12.344L12.3742 6.128L14.2222 5.96L14.1742 12.176L14.2222 17H12.3502L12.4462 12.344ZM13.3342 1.088C13.6542 1.088 13.9102 1.184 14.1022 1.376C14.2942 1.568 14.3902 1.832 14.3902 2.168C14.3902 2.52 14.2862 2.8 14.0782 3.008C13.8862 3.216 13.6142 3.32 13.2622 3.32C12.9262 3.32 12.6622 3.224 12.4702 3.032C12.2942 2.84 12.2062 2.568 12.2062 2.216C12.2062 1.88 12.3022 1.608 12.4942 1.4C12.7022 1.192 12.9822 1.088 13.3342 1.088ZM25.0747 9.536C25.0907 8.88 24.9387 8.368 24.6187 8C24.2987 7.632 23.8267 7.448 23.2027 7.448C22.1947 7.448 21.1067 8.016 19.9387 9.152V12.176L20.0347 17H18.1387L18.2587 12.344L18.1627 6.128L19.9627 5.96V7.568H20.1067C21.0987 6.688 22.1147 6.12 23.1547 5.864C24.3547 5.864 25.2667 6.144 25.8907 6.704C26.5307 7.264 26.8427 8.064 26.8267 9.104L26.7787 12.224L26.8747 17H24.9547L25.0747 9.536ZM38.7457 12.176L38.8177 14.648C38.8337 14.984 38.8897 15.224 38.9857 15.368C39.0817 15.496 39.2577 15.56 39.5137 15.56C39.7697 15.56 40.0417 15.512 40.3297 15.416L40.5217 15.584L40.3297 16.664C39.8977 16.936 39.4497 17.096 38.9857 17.144C38.4897 17.096 38.0977 16.928 37.8097 16.64C37.5377 16.352 37.3697 15.96 37.3057 15.464H37.1377C36.6577 15.88 36.2257 16.216 35.8417 16.472C35.4577 16.712 35.0177 16.928 34.5217 17.12C32.9377 17.12 31.7217 16.64 30.8737 15.68C30.0257 14.704 29.6017 13.32 29.6017 11.528C29.6017 9.72 30.0737 8.32 31.0177 7.328C31.9617 6.32 33.2657 5.816 34.9297 5.816C35.6817 5.816 36.3857 5.896 37.0417 6.056L37.0177 0.319999L38.9137 0.151999L38.7457 12.176ZM34.7137 7.16C33.6897 7.16 32.8817 7.512 32.2897 8.216C31.6977 8.904 31.4017 9.904 31.4017 11.216C31.4017 12.576 31.6657 13.632 32.1937 14.384C32.7377 15.136 33.4817 15.512 34.4257 15.512C34.8737 15.512 35.3057 15.4 35.7217 15.176C36.1537 14.952 36.6017 14.576 37.0657 14.048L37.1137 12.32L37.0417 7.76C36.1937 7.36 35.4177 7.16 34.7137 7.16ZM47.3525 7.352L49.9925 14.936H50.1605L52.8965 7.52L53.2565 6.008H54.9605L51.0245 16.616C50.6245 17.704 50.1925 18.56 49.7285 19.184C49.2805 19.808 48.7285 20.296 48.0725 20.648C47.4325 21.016 46.5845 21.328 45.5285 21.584H45.3605C45.0245 21.248 44.7605 20.872 44.5685 20.456L44.6165 20.24C45.8325 20 46.7605 19.656 47.4005 19.208C48.0565 18.776 48.6645 18.04 49.2245 17L45.1925 6.056L46.9925 5.936L47.3525 7.352ZM60.9146 5.816C62.4026 5.816 63.5546 6.304 64.3706 7.28C65.2026 8.24 65.6186 9.6 65.6186 11.36C65.6186 13.216 65.1866 14.656 64.3226 15.68C63.4586 16.688 62.2266 17.192 60.6266 17.192C59.1226 17.192 57.9546 16.712 57.1226 15.752C56.3066 14.776 55.8986 13.408 55.8986 11.648C55.8986 9.792 56.3306 8.36 57.1946 7.352C58.0746 6.328 59.3146 5.816 60.9146 5.816ZM60.7946 7.16C59.7866 7.16 59.0186 7.504 58.4906 8.192C57.9626 8.88 57.6986 9.888 57.6986 11.216C57.6986 12.752 57.9546 13.904 58.4666 14.672C58.9946 15.44 59.7546 15.824 60.7466 15.824C61.7546 15.824 62.5226 15.488 63.0506 14.816C63.5786 14.144 63.8426 13.136 63.8426 11.792C63.8426 10.272 63.5786 9.12 63.0506 8.336C62.5386 7.552 61.7866 7.16 60.7946 7.16ZM78.4396 15.584L78.2476 16.664C77.7836 16.936 77.3276 17.096 76.8796 17.144C76.4156 17.08 76.0396 16.92 75.7516 16.664C75.4796 16.392 75.2876 15.992 75.1756 15.464H75.0316C74.0716 16.328 73.0796 16.888 72.0556 17.144C70.8716 17.144 69.9676 16.864 69.3436 16.304C68.7356 15.744 68.4396 14.944 68.4556 13.904L68.4796 10.856L68.4076 6.128L70.3276 5.96L70.1836 13.448C70.1836 14.104 70.3356 14.616 70.6396 14.984C70.9596 15.352 71.4236 15.536 72.0316 15.536C73.0236 15.536 74.0156 15.056 75.0076 14.096V6.128L76.8316 5.96L76.7116 14.648C76.7116 14.984 76.7596 15.224 76.8556 15.368C76.9676 15.496 77.1516 15.56 77.4076 15.56C77.6636 15.56 77.9436 15.512 78.2476 15.416L78.4396 15.584ZM85.6396 5.984C85.8316 5.984 86.0396 6 86.2636 6.032V7.88L86.0476 7.952C85.7756 7.872 85.4796 7.832 85.1596 7.832C84.6316 7.832 84.1436 8.048 83.6956 8.48C83.2636 8.896 82.8316 9.568 82.3996 10.496L82.3756 12.176L82.4956 17H80.5996L80.7196 12.344L80.6236 6.128L82.4236 5.96L82.3996 8.216H82.5436C82.9916 7.416 83.4876 6.848 84.0316 6.512C84.5756 6.16 85.1116 5.984 85.6396 5.984ZM97.3104 5.888C98.6864 5.888 99.7424 6.344 100.478 7.256C101.214 8.168 101.582 9.472 101.582 11.168C101.582 13.088 101.118 14.576 100.19 15.632C99.2624 16.672 97.9424 17.192 96.2304 17.192C95.5584 17.192 94.8624 17.12 94.1424 16.976L94.1904 21.44H92.3184L92.4384 12.344L92.3184 6.128L94.1424 5.96L94.1184 7.52H94.2864C94.8464 7.056 95.3504 6.704 95.7984 6.464C96.2464 6.224 96.7504 6.032 97.3104 5.888ZM96.4704 15.8C97.5264 15.8 98.3424 15.432 98.9184 14.696C99.4944 13.96 99.7824 12.912 99.7824 11.552C99.7824 10.224 99.5504 9.208 99.0864 8.504C98.6384 7.8 97.9904 7.448 97.1424 7.448C96.6464 7.448 96.1504 7.584 95.6544 7.856C95.1744 8.128 94.6624 8.552 94.1184 9.128L94.0944 12.176L94.1184 15.176C94.9024 15.592 95.6864 15.8 96.4704 15.8ZM105.393 11.432V11.48C105.393 12.824 105.697 13.856 106.305 14.576C106.913 15.296 107.777 15.656 108.897 15.656C109.457 15.656 110.017 15.568 110.577 15.392C111.137 15.2 111.649 14.936 112.113 14.6L112.305 14.744L112.017 16.376C110.897 16.92 109.777 17.192 108.657 17.192C107.089 17.192 105.857 16.696 104.961 15.704C104.065 14.696 103.617 13.32 103.617 11.576C103.617 9.816 104.065 8.416 104.961 7.376C105.857 6.336 107.065 5.816 108.585 5.816C109.865 5.816 110.857 6.184 111.561 6.92C112.265 7.64 112.617 8.648 112.617 9.944C112.617 10.376 112.585 10.784 112.521 11.168L112.281 11.408L105.393 11.432ZM108.585 7.16C107.785 7.16 107.113 7.424 106.569 7.952C106.041 8.464 105.689 9.192 105.513 10.136L110.817 10.04L110.865 9.704C110.865 8.888 110.665 8.264 110.265 7.832C109.881 7.384 109.321 7.16 108.585 7.16ZM120.632 5.984C120.824 5.984 121.032 6 121.256 6.032V7.88L121.04 7.952C120.768 7.872 120.472 7.832 120.152 7.832C119.624 7.832 119.136 8.048 118.688 8.48C118.256 8.896 117.824 9.568 117.392 10.496L117.368 12.176L117.488 17H115.592L115.712 12.344L115.616 6.128L117.416 5.96L117.392 8.216H117.536C117.984 7.416 118.48 6.848 119.024 6.512C119.568 6.16 120.104 5.984 120.632 5.984ZM127.958 0.103999C128.534 0.103999 129.158 0.175999 129.83 0.319999L129.686 1.808L129.542 1.928C128.966 1.64 128.382 1.496 127.79 1.496C127.166 1.496 126.686 1.696 126.35 2.096C126.014 2.48 125.838 3.056 125.822 3.824L125.798 6.032H128.678L128.75 6.176L128.63 7.304H125.774L125.726 12.176L125.846 17H123.95L124.094 12.32L124.046 7.304H122.39L122.294 7.16L122.414 6.032H124.046L124.022 4.112C124.006 2.816 124.342 1.824 125.03 1.136C125.718 0.447999 126.694 0.103999 127.958 0.103999ZM131.057 11.432V11.48C131.057 12.824 131.361 13.856 131.969 14.576C132.577 15.296 133.441 15.656 134.561 15.656C135.121 15.656 135.681 15.568 136.241 15.392C136.801 15.2 137.313 14.936 137.777 14.6L137.969 14.744L137.681 16.376C136.561 16.92 135.441 17.192 134.321 17.192C132.753 17.192 131.521 16.696 130.625 15.704C129.729 14.696 129.281 13.32 129.281 11.576C129.281 9.816 129.729 8.416 130.625 7.376C131.521 6.336 132.729 5.816 134.249 5.816C135.529 5.816 136.521 6.184 137.225 6.92C137.929 7.64 138.281 8.648 138.281 9.944C138.281 10.376 138.249 10.784 138.185 11.168L137.945 11.408L131.057 11.432ZM134.249 7.16C133.449 7.16 132.777 7.424 132.233 7.952C131.705 8.464 131.353 9.192 131.177 10.136L136.481 10.04L136.529 9.704C136.529 8.888 136.329 8.264 135.929 7.832C135.545 7.384 134.985 7.16 134.249 7.16ZM145.216 5.816C145.712 5.816 146.224 5.88 146.752 6.008C147.296 6.12 147.768 6.272 148.168 6.464L147.832 8.12L147.616 8.192C146.784 7.648 145.96 7.376 145.144 7.376C144.2 7.376 143.464 7.736 142.936 8.456C142.408 9.176 142.144 10.184 142.144 11.48C142.144 12.776 142.416 13.8 142.96 14.552C143.52 15.288 144.288 15.656 145.264 15.656C145.696 15.656 146.144 15.584 146.608 15.44C147.088 15.296 147.536 15.096 147.952 14.84L148.168 14.96L147.952 16.568C146.976 16.984 146 17.192 145.024 17.192C143.568 17.192 142.424 16.696 141.592 15.704C140.76 14.696 140.344 13.32 140.344 11.576C140.344 9.8 140.776 8.4 141.64 7.376C142.52 6.336 143.712 5.816 145.216 5.816ZM153.946 15.536C154.474 15.536 155.05 15.376 155.674 15.056L155.89 15.2L155.698 16.448C154.834 16.848 154.034 17.08 153.298 17.144C152.386 16.968 151.73 16.632 151.33 16.136C150.93 15.64 150.73 14.92 150.73 13.976L150.802 12.272L150.778 7.304H149.266L149.17 7.16L149.29 6.032H150.754V4.256L152.41 3.536L152.602 3.704L152.554 6.032H155.818L155.914 6.176L155.794 7.304H152.554L152.434 13.808C152.418 14.448 152.53 14.896 152.77 15.152C153.01 15.408 153.402 15.536 153.946 15.536ZM175.867 9.536C175.883 8.88 175.731 8.368 175.411 8C175.091 7.632 174.619 7.448 173.995 7.448C172.971 7.448 171.907 8 170.803 9.104L170.755 12.224L170.851 17H168.907L169.051 9.536C169.067 8.88 168.915 8.368 168.595 8C168.275 7.632 167.803 7.448 167.179 7.448C166.171 7.448 165.083 8.016 163.915 9.152V12.176L164.011 17H162.115L162.235 12.344L162.139 6.128L163.939 5.96V7.568H164.083C165.075 6.688 166.091 6.12 167.131 5.864C168.027 5.864 168.763 6.024 169.339 6.344C169.915 6.648 170.323 7.096 170.563 7.688H170.707C171.715 6.776 172.795 6.168 173.947 5.864C175.163 5.864 176.083 6.144 176.707 6.704C177.331 7.264 177.635 8.064 177.619 9.104L177.571 12.224L177.667 17H175.747L175.867 9.536ZM184.935 5.816C185.975 5.816 186.791 6.072 187.383 6.584C187.991 7.096 188.295 7.8 188.295 8.696C188.295 8.968 188.247 9.952 188.151 11.648C188.055 13.344 188.007 14.336 188.007 14.624C188.007 14.976 188.063 15.224 188.175 15.368C188.287 15.496 188.479 15.56 188.751 15.56C188.991 15.56 189.263 15.512 189.567 15.416L189.759 15.584L189.567 16.664C189.103 16.936 188.647 17.096 188.199 17.144C187.703 17.096 187.303 16.92 186.999 16.616C186.711 16.312 186.559 15.896 186.543 15.368H186.375C185.511 16.248 184.655 16.848 183.807 17.168C182.735 17.168 181.895 16.904 181.287 16.376C180.695 15.832 180.399 15.096 180.399 14.168C180.399 13.464 180.583 12.904 180.951 12.488C181.335 12.072 181.895 11.776 182.631 11.6L186.519 10.688L186.543 9.128C186.543 8.504 186.375 8.024 186.039 7.688C185.719 7.352 185.255 7.184 184.647 7.184C184.103 7.184 183.559 7.312 183.015 7.568C182.471 7.824 181.887 8.224 181.263 8.768L181.071 8.672L180.831 7.304C182.159 6.312 183.527 5.816 184.935 5.816ZM183.015 12.752C182.695 12.848 182.463 12.984 182.319 13.16C182.175 13.32 182.103 13.568 182.103 13.904C182.103 14.432 182.247 14.848 182.535 15.152C182.839 15.44 183.239 15.584 183.735 15.584C184.615 15.584 185.511 15.016 186.423 13.88L186.495 11.912L183.015 12.752ZM195.853 15.536C196.381 15.536 196.957 15.376 197.581 15.056L197.797 15.2L197.605 16.448C196.741 16.848 195.941 17.08 195.205 17.144C194.293 16.968 193.637 16.632 193.237 16.136C192.837 15.64 192.637 14.92 192.637 13.976L192.709 12.272L192.685 7.304H191.173L191.077 7.16L191.197 6.032H192.661V4.256L194.317 3.536L194.509 3.704L194.461 6.032H197.725L197.821 6.176L197.701 7.304H194.461L194.341 13.808C194.325 14.448 194.437 14.896 194.677 15.152C194.917 15.408 195.309 15.536 195.853 15.536ZM203.692 5.816C204.188 5.816 204.7 5.88 205.228 6.008C205.772 6.12 206.244 6.272 206.644 6.464L206.308 8.12L206.092 8.192C205.26 7.648 204.436 7.376 203.62 7.376C202.676 7.376 201.94 7.736 201.412 8.456C200.884 9.176 200.62 10.184 200.62 11.48C200.62 12.776 200.892 13.8 201.436 14.552C201.996 15.288 202.764 15.656 203.74 15.656C204.172 15.656 204.62 15.584 205.084 15.44C205.564 15.296 206.012 15.096 206.428 14.84L206.644 14.96L206.428 16.568C205.452 16.984 204.476 17.192 203.5 17.192C202.044 17.192 200.9 16.696 200.068 15.704C199.236 14.696 198.82 13.32 198.82 11.576C198.82 9.8 199.252 8.4 200.116 7.376C200.996 6.336 202.188 5.816 203.692 5.816ZM215.999 9.536C216.015 8.88 215.863 8.368 215.543 8C215.223 7.632 214.751 7.448 214.127 7.448C213.071 7.448 211.991 8.016 210.887 9.152L210.839 12.176L210.959 17H209.063L209.207 12.32L209.087 0.319999L210.983 0.151999L210.887 7.568H211.031C212.023 6.688 213.039 6.12 214.079 5.864C215.295 5.864 216.215 6.144 216.839 6.704C217.463 7.264 217.767 8.064 217.751 9.104L217.703 12.224L217.799 17H215.879L215.999 9.536ZM222.564 14.912C223.236 15.328 223.572 15.864 223.572 16.52C223.572 17.56 222.82 18.632 221.316 19.736L220.668 19.136V18.968C221.548 18.28 221.988 17.576 221.988 16.856C221.988 16.424 221.74 16.048 221.244 15.728V15.536C221.692 15.232 222.132 15.024 222.564 14.912ZM11.2559 30.808L11.1119 32.296L8.42394 32.152H6.86394L6.79194 41.2L6.86394 46H4.91994L5.06394 41.368L4.94394 32.152H3.38394L0.647939 32.296L0.527939 32.104L0.671939 30.616H11.1119L11.2559 30.808ZM20.4832 38.536C20.4992 37.88 20.3472 37.368 20.0272 37C19.7072 36.632 19.2352 36.448 18.6112 36.448C17.5552 36.448 16.4752 37.016 15.3712 38.152L15.3232 41.176L15.4432 46H13.5472L13.6912 41.32L13.5712 29.32L15.4672 29.152L15.3712 36.568H15.5152C16.5072 35.688 17.5232 35.12 18.5632 34.864C19.7792 34.864 20.6992 35.144 21.3232 35.704C21.9472 36.264 22.2512 37.064 22.2352 38.104L22.1872 41.224L22.2832 46H20.3632L20.4832 38.536ZM26.7839 40.432V40.48C26.7839 41.824 27.0879 42.856 27.6959 43.576C28.3039 44.296 29.1679 44.656 30.2879 44.656C30.8479 44.656 31.4079 44.568 31.9679 44.392C32.5279 44.2 33.0399 43.936 33.5039 43.6L33.6959 43.744L33.4079 45.376C32.2879 45.92 31.1679 46.192 30.0479 46.192C28.4799 46.192 27.2479 45.696 26.3519 44.704C25.4559 43.696 25.0079 42.32 25.0079 40.576C25.0079 38.816 25.4559 37.416 26.3519 36.376C27.2479 35.336 28.4559 34.816 29.9759 34.816C31.2559 34.816 32.2479 35.184 32.9519 35.92C33.6559 36.64 34.0079 37.648 34.0079 38.944C34.0079 39.376 33.9759 39.784 33.9119 40.168L33.6719 40.408L26.7839 40.432ZM29.9759 36.16C29.1759 36.16 28.5039 36.424 27.9599 36.952C27.4319 37.464 27.0799 38.192 26.9039 39.136L32.2079 39.04L32.2559 38.704C32.2559 37.888 32.0559 37.264 31.6559 36.832C31.2719 36.384 30.7119 36.16 29.9759 36.16ZM44.5674 34.816C45.6074 34.816 46.4234 35.072 47.0154 35.584C47.6234 36.096 47.9274 36.8 47.9274 37.696C47.9274 37.968 47.8794 38.952 47.7834 40.648C47.6874 42.344 47.6394 43.336 47.6394 43.624C47.6394 43.976 47.6954 44.224 47.8074 44.368C47.9194 44.496 48.1114 44.56 48.3834 44.56C48.6234 44.56 48.8954 44.512 49.1994 44.416L49.3914 44.584L49.1994 45.664C48.7354 45.936 48.2794 46.096 47.8314 46.144C47.3354 46.096 46.9354 45.92 46.6314 45.616C46.3434 45.312 46.1914 44.896 46.1754 44.368H46.0074C45.1434 45.248 44.2874 45.848 43.4394 46.168C42.3674 46.168 41.5274 45.904 40.9194 45.376C40.3274 44.832 40.0314 44.096 40.0314 43.168C40.0314 42.464 40.2154 41.904 40.5834 41.488C40.9674 41.072 41.5274 40.776 42.2634 40.6L46.1514 39.688L46.1754 38.128C46.1754 37.504 46.0074 37.024 45.6714 36.688C45.3514 36.352 44.8874 36.184 44.2794 36.184C43.7354 36.184 43.1914 36.312 42.6474 36.568C42.1034 36.824 41.5194 37.224 40.8954 37.768L40.7034 37.672L40.4634 36.304C41.7914 35.312 43.1594 34.816 44.5674 34.816ZM42.6474 41.752C42.3274 41.848 42.0954 41.984 41.9514 42.16C41.8074 42.32 41.7354 42.568 41.7354 42.904C41.7354 43.432 41.8794 43.848 42.1674 44.152C42.4714 44.44 42.8714 44.584 43.3674 44.584C44.2474 44.584 45.1434 44.016 46.0554 42.88L46.1274 40.912L42.6474 41.752ZM57.0213 34.888C58.3973 34.888 59.4533 35.344 60.1893 36.256C60.9253 37.168 61.2933 38.472 61.2933 40.168C61.2933 42.088 60.8293 43.576 59.9013 44.632C58.9733 45.672 57.6533 46.192 55.9413 46.192C55.2693 46.192 54.5733 46.12 53.8533 45.976L53.9013 50.44H52.0293L52.1493 41.344L52.0293 35.128L53.8533 34.96L53.8293 36.52H53.9973C54.5573 36.056 55.0613 35.704 55.5093 35.464C55.9573 35.224 56.4613 35.032 57.0213 34.888ZM56.1813 44.8C57.2373 44.8 58.0533 44.432 58.6293 43.696C59.2053 42.96 59.4933 41.912 59.4933 40.552C59.4933 39.224 59.2613 38.208 58.7973 37.504C58.3493 36.8 57.7013 36.448 56.8533 36.448C56.3573 36.448 55.8613 36.584 55.3653 36.856C54.8853 37.128 54.3733 37.552 53.8293 38.128L53.8053 41.176L53.8293 44.176C54.6133 44.592 55.3973 44.8 56.1813 44.8ZM67.8643 34.816C68.9043 34.816 69.7203 35.072 70.3123 35.584C70.9203 36.096 71.2243 36.8 71.2243 37.696C71.2243 37.968 71.1763 38.952 71.0803 40.648C70.9843 42.344 70.9363 43.336 70.9363 43.624C70.9363 43.976 70.9923 44.224 71.1043 44.368C71.2163 44.496 71.4083 44.56 71.6803 44.56C71.9203 44.56 72.1923 44.512 72.4963 44.416L72.6883 44.584L72.4963 45.664C72.0323 45.936 71.5763 46.096 71.1283 46.144C70.6323 46.096 70.2323 45.92 69.9283 45.616C69.6403 45.312 69.4883 44.896 69.4723 44.368H69.3043C68.4403 45.248 67.5843 45.848 66.7363 46.168C65.6643 46.168 64.8243 45.904 64.2163 45.376C63.6243 44.832 63.3283 44.096 63.3283 43.168C63.3283 42.464 63.5123 41.904 63.8803 41.488C64.2643 41.072 64.8243 40.776 65.5603 40.6L69.4483 39.688L69.4723 38.128C69.4723 37.504 69.3043 37.024 68.9683 36.688C68.6483 36.352 68.1843 36.184 67.5763 36.184C67.0323 36.184 66.4883 36.312 65.9443 36.568C65.4003 36.824 64.8163 37.224 64.1923 37.768L64.0003 37.672L63.7603 36.304C65.0883 35.312 66.4563 34.816 67.8643 34.816ZM65.9443 41.752C65.6243 41.848 65.3923 41.984 65.2483 42.16C65.1043 42.32 65.0323 42.568 65.0323 42.904C65.0323 43.432 65.1763 43.848 65.4643 44.152C65.7683 44.44 66.1683 44.584 66.6643 44.584C67.5443 44.584 68.4403 44.016 69.3523 42.88L69.4243 40.912L65.9443 41.752ZM80.1318 34.984C80.3238 34.984 80.5318 35 80.7558 35.032V36.88L80.5398 36.952C80.2678 36.872 79.9718 36.832 79.6518 36.832C79.1238 36.832 78.6358 37.048 78.1878 37.48C77.7558 37.896 77.3238 38.568 76.8918 39.496L76.8678 41.176L76.9878 46H75.0918L75.2118 41.344L75.1158 35.128L76.9158 34.96L76.8918 37.216H77.0358C77.4838 36.416 77.9798 35.848 78.5238 35.512C79.0678 35.16 79.6038 34.984 80.1318 34.984ZM86.3056 44.536C86.8336 44.536 87.4096 44.376 88.0336 44.056L88.2496 44.2L88.0576 45.448C87.1936 45.848 86.3936 46.08 85.6576 46.144C84.7456 45.968 84.0896 45.632 83.6896 45.136C83.2896 44.64 83.0896 43.92 83.0896 42.976L83.1616 41.272L83.1376 36.304H81.6256L81.5296 36.16L81.6496 35.032H83.1136V33.256L84.7696 32.536L84.9616 32.704L84.9136 35.032H88.1776L88.2736 35.176L88.1536 36.304H84.9136L84.7936 42.808C84.7776 43.448 84.8896 43.896 85.1296 44.152C85.3696 44.408 85.7616 44.536 86.3056 44.536ZM104.266 38.536C104.282 37.88 104.13 37.368 103.81 37C103.49 36.632 103.018 36.448 102.394 36.448C101.37 36.448 100.306 37 99.2017 38.104L99.1537 41.224L99.2497 46H97.3057L97.4497 38.536C97.4657 37.88 97.3137 37.368 96.9937 37C96.6737 36.632 96.2017 36.448 95.5777 36.448C94.5697 36.448 93.4817 37.016 92.3137 38.152V41.176L92.4097 46H90.5137L90.6337 41.344L90.5377 35.128L92.3377 34.96V36.568H92.4817C93.4737 35.688 94.4897 35.12 95.5297 34.864C96.4257 34.864 97.1617 35.024 97.7377 35.344C98.3137 35.648 98.7217 36.096 98.9617 36.688H99.1057C100.114 35.776 101.194 35.168 102.346 34.864C103.562 34.864 104.482 35.144 105.106 35.704C105.73 36.264 106.034 37.064 106.018 38.104L105.97 41.224L106.066 46H104.146L104.266 38.536ZM110.573 40.432V40.48C110.573 41.824 110.877 42.856 111.485 43.576C112.093 44.296 112.957 44.656 114.077 44.656C114.637 44.656 115.197 44.568 115.757 44.392C116.317 44.2 116.829 43.936 117.293 43.6L117.485 43.744L117.197 45.376C116.077 45.92 114.957 46.192 113.837 46.192C112.269 46.192 111.037 45.696 110.141 44.704C109.245 43.696 108.797 42.32 108.797 40.576C108.797 38.816 109.245 37.416 110.141 36.376C111.037 35.336 112.245 34.816 113.765 34.816C115.045 34.816 116.037 35.184 116.741 35.92C117.445 36.64 117.797 37.648 117.797 38.944C117.797 39.376 117.765 39.784 117.701 40.168L117.461 40.408L110.573 40.432ZM113.765 36.16C112.965 36.16 112.293 36.424 111.749 36.952C111.221 37.464 110.869 38.192 110.693 39.136L115.997 39.04L116.045 38.704C116.045 37.888 115.845 37.264 115.445 36.832C115.061 36.384 114.501 36.16 113.765 36.16ZM127.708 38.536C127.724 37.88 127.572 37.368 127.252 37C126.932 36.632 126.46 36.448 125.836 36.448C124.828 36.448 123.74 37.016 122.572 38.152V41.176L122.668 46H120.772L120.892 41.344L120.796 35.128L122.596 34.96V36.568H122.74C123.732 35.688 124.748 35.12 125.788 34.864C126.988 34.864 127.9 35.144 128.524 35.704C129.164 36.264 129.476 37.064 129.46 38.104L129.412 41.224L129.508 46H127.588L127.708 38.536ZM136.603 44.536C137.131 44.536 137.707 44.376 138.331 44.056L138.547 44.2L138.355 45.448C137.491 45.848 136.691 46.08 135.955 46.144C135.043 45.968 134.387 45.632 133.987 45.136C133.587 44.64 133.387 43.92 133.387 42.976L133.459 41.272L133.435 36.304H131.923L131.827 36.16L131.947 35.032H133.411V33.256L135.067 32.536L135.259 32.704L135.211 35.032H138.475L138.571 35.176L138.451 36.304H135.211L135.091 42.808C135.075 43.448 135.187 43.896 135.427 44.152C135.667 44.408 136.059 44.536 136.603 44.536ZM148.228 44.536C148.756 44.536 149.332 44.376 149.956 44.056L150.172 44.2L149.98 45.448C149.116 45.848 148.316 46.08 147.58 46.144C146.668 45.968 146.012 45.632 145.612 45.136C145.212 44.64 145.012 43.92 145.012 42.976L145.084 41.272L145.06 36.304H143.548L143.452 36.16L143.572 35.032H145.036V33.256L146.692 32.536L146.884 32.704L146.836 35.032H150.1L150.196 35.176L150.076 36.304H146.836L146.716 42.808C146.7 43.448 146.812 43.896 147.052 44.152C147.292 44.408 147.684 44.536 148.228 44.536ZM159.468 38.536C159.484 37.88 159.332 37.368 159.012 37C158.692 36.632 158.22 36.448 157.596 36.448C156.54 36.448 155.46 37.016 154.356 38.152L154.308 41.176L154.428 46H152.532L152.676 41.32L152.556 29.32L154.452 29.152L154.356 36.568H154.5C155.492 35.688 156.508 35.12 157.548 34.864C158.764 34.864 159.684 35.144 160.308 35.704C160.932 36.264 161.236 37.064 161.22 38.104L161.172 41.224L161.268 46H159.348L159.468 38.536ZM168.528 34.816C169.568 34.816 170.384 35.072 170.976 35.584C171.584 36.096 171.888 36.8 171.888 37.696C171.888 37.968 171.84 38.952 171.744 40.648C171.648 42.344 171.6 43.336 171.6 43.624C171.6 43.976 171.656 44.224 171.768 44.368C171.88 44.496 172.072 44.56 172.344 44.56C172.584 44.56 172.856 44.512 173.16 44.416L173.352 44.584L173.16 45.664C172.696 45.936 172.24 46.096 171.792 46.144C171.296 46.096 170.896 45.92 170.592 45.616C170.304 45.312 170.152 44.896 170.136 44.368H169.968C169.104 45.248 168.248 45.848 167.4 46.168C166.328 46.168 165.488 45.904 164.88 45.376C164.288 44.832 163.992 44.096 163.992 43.168C163.992 42.464 164.176 41.904 164.544 41.488C164.928 41.072 165.488 40.776 166.224 40.6L170.112 39.688L170.136 38.128C170.136 37.504 169.968 37.024 169.632 36.688C169.312 36.352 168.848 36.184 168.24 36.184C167.696 36.184 167.152 36.312 166.608 36.568C166.064 36.824 165.48 37.224 164.856 37.768L164.664 37.672L164.424 36.304C165.752 35.312 167.12 34.816 168.528 34.816ZM166.608 41.752C166.288 41.848 166.056 41.984 165.912 42.16C165.768 42.32 165.696 42.568 165.696 42.904C165.696 43.432 165.84 43.848 166.128 44.152C166.432 44.44 166.832 44.584 167.328 44.584C168.208 44.584 169.104 44.016 170.016 42.88L170.088 40.912L166.608 41.752ZM179.446 44.536C179.974 44.536 180.55 44.376 181.174 44.056L181.39 44.2L181.198 45.448C180.334 45.848 179.534 46.08 178.798 46.144C177.886 45.968 177.23 45.632 176.83 45.136C176.43 44.64 176.23 43.92 176.23 42.976L176.302 41.272L176.278 36.304H174.766L174.67 36.16L174.79 35.032H176.254V33.256L177.91 32.536L178.102 32.704L178.054 35.032H181.318L181.414 35.176L181.294 36.304H178.054L177.934 42.808C177.918 43.448 178.03 43.896 178.27 44.152C178.51 44.408 178.902 44.536 179.446 44.536ZM192.823 29.104C193.751 29.104 194.783 29.264 195.919 29.584L195.679 31.168L195.439 31.24C194.911 30.984 194.423 30.8 193.975 30.688C193.527 30.56 193.071 30.496 192.607 30.496C191.743 30.496 191.103 30.72 190.687 31.168C190.287 31.6 190.087 32.28 190.087 33.208L190.063 35.032H195.967L197.095 34.888L197.239 34.96L197.095 41.224L197.239 46H195.319L195.463 41.368L195.367 36.304H190.063L189.991 41.2L190.111 46H188.215L188.359 41.344L188.311 36.304H186.655L186.559 36.16L186.679 35.032H188.287V33.568C188.287 32.032 188.647 30.904 189.367 30.184C190.103 29.464 191.255 29.104 192.823 29.104ZM204.384 44.536C204.912 44.536 205.488 44.376 206.112 44.056L206.328 44.2L206.136 45.448C205.272 45.848 204.472 46.08 203.736 46.144C202.824 45.968 202.168 45.632 201.768 45.136C201.368 44.64 201.168 43.92 201.168 42.976L201.24 41.272L201.216 36.304H199.704L199.608 36.16L199.728 35.032H201.192V33.256L202.848 32.536L203.04 32.704L202.992 35.032H206.256L206.352 35.176L206.232 36.304H202.992L202.872 42.808C202.856 43.448 202.968 43.896 203.208 44.152C203.448 44.408 203.84 44.536 204.384 44.536ZM211.592 34.84C212.504 34.84 213.384 35.016 214.232 35.368L213.968 36.928L213.68 37C212.88 36.472 212.112 36.208 211.376 36.208C210.832 36.208 210.392 36.36 210.056 36.664C209.72 36.968 209.552 37.336 209.552 37.768C209.552 38.2 209.72 38.552 210.056 38.824C210.408 39.08 210.944 39.376 211.664 39.712C212.288 40 212.784 40.264 213.152 40.504C213.536 40.728 213.864 41.032 214.136 41.416C214.408 41.8 214.544 42.272 214.544 42.832C214.544 43.424 214.392 43.976 214.088 44.488C213.784 45 213.336 45.416 212.744 45.736C212.152 46.04 211.448 46.192 210.632 46.192C209.512 46.192 208.448 45.928 207.44 45.4L207.68 43.768L207.896 43.624C208.344 44.008 208.824 44.304 209.336 44.512C209.864 44.72 210.36 44.824 210.824 44.824C211.416 44.824 211.896 44.664 212.264 44.344C212.632 44.008 212.816 43.616 212.816 43.168C212.816 42.736 212.64 42.392 212.288 42.136C211.952 41.864 211.424 41.56 210.704 41.224C210.08 40.936 209.576 40.68 209.192 40.456C208.808 40.216 208.48 39.896 208.208 39.496C207.936 39.096 207.8 38.6 207.8 38.008C207.8 37.08 208.136 36.32 208.808 35.728C209.496 35.136 210.424 34.84 211.592 34.84ZM221.892 36.352L224.532 43.936H224.7L227.436 36.52L227.796 35.008H229.5L225.564 45.616C225.164 46.704 224.732 47.56 224.268 48.184C223.82 48.808 223.268 49.296 222.612 49.648C221.972 50.016 221.124 50.328 220.068 50.584H219.9C219.564 50.248 219.3 49.872 219.108 49.456L219.156 49.24C220.372 49 221.3 48.656 221.94 48.208C222.596 47.776 223.204 47.04 223.764 46L219.732 35.056L221.532 34.936L221.892 36.352ZM235.454 34.816C236.942 34.816 238.094 35.304 238.91 36.28C239.742 37.24 240.158 38.6 240.158 40.36C240.158 42.216 239.726 43.656 238.862 44.68C237.998 45.688 236.766 46.192 235.166 46.192C233.662 46.192 232.494 45.712 231.662 44.752C230.846 43.776 230.438 42.408 230.438 40.648C230.438 38.792 230.87 37.36 231.734 36.352C232.614 35.328 233.854 34.816 235.454 34.816ZM235.334 36.16C234.326 36.16 233.558 36.504 233.03 37.192C232.502 37.88 232.238 38.888 232.238 40.216C232.238 41.752 232.494 42.904 233.006 43.672C233.534 44.44 234.294 44.824 235.286 44.824C236.294 44.824 237.062 44.488 237.59 43.816C238.118 43.144 238.382 42.136 238.382 40.792C238.382 39.272 238.118 38.12 237.59 37.336C237.078 36.552 236.326 36.16 235.334 36.16ZM252.979 44.584L252.787 45.664C252.323 45.936 251.867 46.096 251.419 46.144C250.955 46.08 250.579 45.92 250.291 45.664C250.019 45.392 249.827 44.992 249.715 44.464H249.571C248.611 45.328 247.619 45.888 246.595 46.144C245.411 46.144 244.507 45.864 243.883 45.304C243.275 44.744 242.979 43.944 242.995 42.904L243.019 39.856L242.947 35.128L244.867 34.96L244.723 42.448C244.723 43.104 244.875 43.616 245.179 43.984C245.499 44.352 245.963 44.536 246.571 44.536C247.563 44.536 248.555 44.056 249.547 43.096V35.128L251.371 34.96L251.251 43.648C251.251 43.984 251.299 44.224 251.395 44.368C251.507 44.496 251.691 44.56 251.947 44.56C252.203 44.56 252.483 44.512 252.787 44.416L252.979 44.584ZM256.237 43.888C256.557 43.888 256.813 43.984 257.005 44.176C257.197 44.368 257.293 44.632 257.293 44.968C257.293 45.32 257.189 45.6 256.981 45.808C256.789 46.016 256.517 46.12 256.165 46.12C255.829 46.12 255.565 46.024 255.373 45.832C255.197 45.64 255.109 45.368 255.109 45.016C255.109 44.68 255.205 44.408 255.397 44.2C255.605 43.992 255.885 43.888 256.237 43.888Z" fill="#371B34"/>
</svg>
